<?xml version="1.0" encoding="UTF-8" standalone="no"?>
<!DOCTYPE svg PUBLIC "-//W3C//DTD SVG 1.1//EN"
 "http://www.w3.org/Graphics/SVG/1.1/DTD/svg11.dtd">
<!-- Generated by graphviz version 2.38.0 (20140413.2041)
 -->
<!-- Title: G Pages: 1 -->
<svg width="519pt" height="260pt"
 viewBox="0.00 0.00 518.50 260.00" xmlns="http://www.w3.org/2000/svg" xmlns:xlink="http://www.w3.org/1999/xlink">
<g id="graph0" class="graph" transform="scale(1 1) rotate(0) translate(4 256)">
<title>G</title>
<polygon fill="white" stroke="none" points="-4,4 -4,-256 514.5,-256 514.5,4 -4,4"/>
<!-- Node01505390 -->
<g id="node1" class="node"><title>Node01505390</title>
<polygon fill="none" stroke="black" points="350.5,-252 268.5,-252 268.5,-216 350.5,-216 350.5,-252"/>
<text text-anchor="middle" x="309.5" y="-230.3" font-family="Times New Roman,serif" font-size="14.00">Футболист</text>
</g>
<!-- Node015054D0 -->
<g id="node2" class="node"><title>Node015054D0</title>
<polygon fill="none" stroke="black" points="315,-180 168,-180 168,-144 315,-144 315,-180"/>
<text text-anchor="middle" x="241.5" y="-158.3" font-family="Times New Roman,serif" font-size="14.00">Сказочный персонаж</text>
</g>
<!-- Node01505390&#45;&gt;Node015054D0 -->
<g id="edge1" class="edge"><title>Node01505390&#45;&gt;Node015054D0</title>
<path fill="none" stroke="black" d="M292.691,-215.697C284.374,-207.135 274.195,-196.656 265.11,-187.304"/>
<polygon fill="black" stroke="black" points="267.594,-184.838 258.116,-180.104 262.573,-189.716 267.594,-184.838"/>
</g>
<!-- Node01514888 -->
<g id="node9" class="node"><title>Node01514888</title>
<polygon fill="none" stroke="black" points="417,-180 338,-180 338,-144 417,-144 417,-180"/>
<text text-anchor="middle" x="377.5" y="-158.3" font-family="Times New Roman,serif" font-size="14.00">Барселона</text>
</g>
<!-- Node01505390&#45;&gt;Node01514888 -->
<g id="edge8" class="edge"><title>Node01505390&#45;&gt;Node01514888</title>
<path fill="none" stroke="black" d="M326.309,-215.697C334.626,-207.135 344.805,-196.656 353.89,-187.304"/>
<polygon fill="black" stroke="black" points="356.427,-189.716 360.884,-180.104 351.406,-184.838 356.427,-189.716"/>
</g>
<!-- Node01510050 -->
<g id="node3" class="node"><title>Node01510050</title>
<polygon fill="none" stroke="black" points="185,-108 52,-108 52,-72 185,-72 185,-108"/>
<text text-anchor="middle" x="118.5" y="-86.3" font-family="Times New Roman,serif" font-size="14.00">Играет за питсбург</text>
</g>
<!-- Node015054D0&#45;&gt;Node01510050 -->
<g id="edge2" class="edge"><title>Node015054D0&#45;&gt;Node01510050</title>
<path fill="none" stroke="black" d="M211.411,-143.876C195.18,-134.639 174.958,-123.131 157.529,-113.212"/>
<polygon fill="black" stroke="black" points="159.127,-110.094 148.705,-108.19 155.665,-116.178 159.127,-110.094"/>
</g>
<!-- Node01514788 -->
<g id="node6" class="node"><title>Node01514788</title>
<polygon fill="none" stroke="black" points="274.5,-108 208.5,-108 208.5,-72 274.5,-72 274.5,-108"/>
<text text-anchor="middle" x="241.5" y="-86.3" font-family="Times New Roman,serif" font-size="14.00">зеленый</text>
</g>
<!-- Node015054D0&#45;&gt;Node01514788 -->
<g id="edge5" class="edge"><title>Node015054D0&#45;&gt;Node01514788</title>
<path fill="none" stroke="black" d="M241.5,-143.697C241.5,-135.983 241.5,-126.712 241.5,-118.112"/>
<polygon fill="black" stroke="black" points="245,-118.104 241.5,-108.104 238,-118.104 245,-118.104"/>
</g>
<!-- Node01514260 -->
<g id="node4" class="node"><title>Node01514260</title>
<polygon fill="none" stroke="black" points="69,-36 0,-36 0,-0 69,-0 69,-36"/>
<text text-anchor="middle" x="34.5" y="-14.3" font-family="Times New Roman,serif" font-size="14.00">Овечкин</text>
</g>
<!-- Node01510050&#45;&gt;Node01514260 -->
<g id="edge3" class="edge"><title>Node01510050&#45;&gt;Node01514260</title>
<path fill="none" stroke="black" d="M97.7359,-71.6966C87.2586,-62.9655 74.3886,-52.2405 63.0003,-42.7503"/>
<polygon fill="black" stroke="black" points="64.9481,-39.8174 55.0252,-36.1043 60.4668,-45.195 64.9481,-39.8174"/>
</g>
<!-- Node01514608 -->
<g id="node5" class="node"><title>Node01514608</title>
<polygon fill="none" stroke="black" points="150,-36 87,-36 87,-0 150,-0 150,-36"/>
<text text-anchor="middle" x="118.5" y="-14.3" font-family="Times New Roman,serif" font-size="14.00">Малкин</text>
</g>
<!-- Node01510050&#45;&gt;Node01514608 -->
<g id="edge4" class="edge"><title>Node01510050&#45;&gt;Node01514608</title>
<path fill="none" stroke="black" d="M118.5,-71.6966C118.5,-63.9827 118.5,-54.7125 118.5,-46.1124"/>
<polygon fill="black" stroke="black" points="122,-46.1043 118.5,-36.1043 115,-46.1044 122,-46.1043"/>
</g>
<!-- Node015147C8 -->
<g id="node7" class="node"><title>Node015147C8</title>
<polygon fill="none" stroke="black" points="248.5,-36 168.5,-36 168.5,-0 248.5,-0 248.5,-36"/>
<text text-anchor="middle" x="208.5" y="-14.3" font-family="Times New Roman,serif" font-size="14.00">Питер Пен</text>
</g>
<!-- Node01514788&#45;&gt;Node015147C8 -->
<g id="edge6" class="edge"><title>Node01514788&#45;&gt;Node015147C8</title>
<path fill="none" stroke="black" d="M233.343,-71.6966C229.586,-63.7284 225.047,-54.0995 220.882,-45.2641"/>
<polygon fill="black" stroke="black" points="223.994,-43.6571 216.563,-36.1043 217.662,-46.6421 223.994,-43.6571"/>
</g>
<!-- Node01514408 -->
<g id="node8" class="node"><title>Node01514408</title>
<polygon fill="none" stroke="black" points="320.5,-36 266.5,-36 266.5,-0 320.5,-0 320.5,-36"/>
<text text-anchor="middle" x="293.5" y="-14.3" font-family="Times New Roman,serif" font-size="14.00">Шрек</text>
</g>
<!-- Node01514788&#45;&gt;Node01514408 -->
<g id="edge7" class="edge"><title>Node01514788&#45;&gt;Node01514408</title>
<path fill="none" stroke="black" d="M254.354,-71.6966C260.525,-63.3893 268.037,-53.2771 274.824,-44.1407"/>
<polygon fill="black" stroke="black" points="277.64,-46.2189 280.794,-36.1043 272.021,-42.0446 277.64,-46.2189"/>
</g>
<!-- Node01514A48 -->
<g id="node10" class="node"><title>Node01514A48</title>
<polygon fill="none" stroke="black" points="410,-108 345,-108 345,-72 410,-72 410,-108"/>
<text text-anchor="middle" x="377.5" y="-86.3" font-family="Times New Roman,serif" font-size="14.00">Вратарь</text>
</g>
<!-- Node01514888&#45;&gt;Node01514A48 -->
<g id="edge9" class="edge"><title>Node01514888&#45;&gt;Node01514A48</title>
<path fill="none" stroke="black" d="M377.5,-143.697C377.5,-135.983 377.5,-126.712 377.5,-118.112"/>
<polygon fill="black" stroke="black" points="381,-118.104 377.5,-108.104 374,-118.104 381,-118.104"/>
</g>
<!-- Node01514348 -->
<g id="node13" class="node"><title>Node01514348</title>
<polygon fill="none" stroke="black" points="484.5,-108 428.5,-108 428.5,-72 484.5,-72 484.5,-108"/>
<text text-anchor="middle" x="456.5" y="-86.3" font-family="Times New Roman,serif" font-size="14.00">Месси</text>
</g>
<!-- Node01514888&#45;&gt;Node01514348 -->
<g id="edge12" class="edge"><title>Node01514888&#45;&gt;Node01514348</title>
<path fill="none" stroke="black" d="M397.028,-143.697C406.882,-134.965 418.986,-124.24 429.696,-114.75"/>
<polygon fill="black" stroke="black" points="432.033,-117.356 437.197,-108.104 427.391,-112.117 432.033,-117.356"/>
</g>
<!-- Node015144C8 -->
<g id="node11" class="node"><title>Node015144C8</title>
<polygon fill="none" stroke="black" points="416,-36 339,-36 339,-0 416,-0 416,-36"/>
<text text-anchor="middle" x="377.5" y="-14.3" font-family="Times New Roman,serif" font-size="14.00">Кержаков</text>
</g>
<!-- Node01514A48&#45;&gt;Node015144C8 -->
<g id="edge10" class="edge"><title>Node01514A48&#45;&gt;Node015144C8</title>
<path fill="none" stroke="black" d="M377.5,-71.6966C377.5,-63.9827 377.5,-54.7125 377.5,-46.1124"/>
<polygon fill="black" stroke="black" points="381,-46.1043 377.5,-36.1043 374,-46.1044 381,-46.1043"/>
</g>
<!-- Node01514748 -->
<g id="node12" class="node"><title>Node01514748</title>
<polygon fill="none" stroke="black" points="510.5,-36 434.5,-36 434.5,-0 510.5,-0 510.5,-36"/>
<text text-anchor="middle" x="472.5" y="-14.3" font-family="Times New Roman,serif" font-size="14.00">Акинфеев</text>
</g>
<!-- Node01514A48&#45;&gt;Node01514748 -->
<g id="edge11" class="edge"><title>Node01514A48&#45;&gt;Node01514748</title>
<path fill="none" stroke="black" d="M400.983,-71.6966C413.063,-62.796 427.954,-51.8232 441.016,-42.1989"/>
<polygon fill="black" stroke="black" points="443.313,-44.8541 449.287,-36.1043 439.16,-39.2187 443.313,-44.8541"/>
</g>
</g>
</svg>
